<?xml version="1.0" encoding="utf-8"?>
<svg version="1.1" xmlns="http://www.w3.org/2000/svg" xmlns:xlink="http://www.w3.org/1999/xlink" x="0px" y="0px"
	 viewBox="0 0 1370 1240" style="enable-background:new 0 0 1370 1240;" xml:space="preserve">
<style type="text/css">
	.st0{fill:#FFFFFF;}
	.st1{opacity:0.9412;fill:url(#SVGID_1_);}
	.st2{opacity:0.9412;fill:url(#SVGID_2_);}
	.st3{fill:#C1272D;}
</style>
<g id="Layer_4_copy">
	<g>
		<g>
			<path class="st0" d="M976.63,51.26H405.65c-152.71,0-276.51,123.8-276.51,276.51v602.97c0,152.71,123.8,276.51,276.51,276.51
				h570.97c152.71,0,276.51-123.8,276.51-276.51V327.77C1253.14,175.06,1129.34,51.26,976.63,51.26z M764.8,555.83l160.27,0.64
				l-23.84,157.27l-137.48,1.37c0,0,0.67,299.78,0.67,462.27l-174.8,0.68l0.71-464.93l-137.75-0.62l-0.11-156.24l137.77-0.71
				c0,0-0.46-31.07-0.46-100.86c6.81-85.57,85.85-179.19,187.51-184.39c104.44,0,154.52-1.47,154.52-1.47l2.82,150.7
				c0,0-60.65-1.23-104.74,0.51c-37.29,7.83-58.17,28.2-65.32,60.99C764.56,522.43,764.8,555.83,764.8,555.83z"/>
		</g>
	</g>
</g>
<g id="Layer_5">
	<g>
		<g>
			<g>
				<linearGradient id="SVGID_1_" gradientUnits="userSpaceOnUse" x1="301.765" y1="576.4702" x2="1106.0154" y2="841.7314">
					<stop  offset="0" style="stop-color:#000000"/>
					<stop  offset="1" style="stop-color:#FF0000"/>
				</linearGradient>
				<path class="st1" d="M764.56,484.46L764.56,484.46c0,0-0.43,41.79-0.43,74.09c4.54,34.45,31.95,33.86,31.95,33.86l123.38-1.1
					l-18.75,123.81l-137.01,1.09l0.02,467.59l-145.46-0.32l-1.93-432.75l-27.16-34.99l-108.69-0.1l-0.44-124.58l129-0.94l6.62-7.34
					l0.84-122.04c0,0,24.12-136.7,168.65-160.04c139.05,0,145.2,0.73,145.2,0.73l2.77,119.52c0,0-3-8.68-93.49,0.21
					c42.76-1.25,94.99-0.18,94.99-0.18l-2.82-152.15c0,0-50.08,1.49-154.52,1.49c-101.65,5.26-180.7,99.78-187.51,186.17
					c0,70.46,0.46,101.84,0.46,101.84l-137.77,0.72l0.11,157.75l137.75,0.62l-0.71,469.41l174.8-0.69
					c0-164.06-0.67-466.73-0.67-466.73l137.48-1.38l23.84-158.79L764.8,558.6C764.8,558.6,764.57,525.61,764.56,484.46z"/>
				<linearGradient id="SVGID_2_" gradientUnits="userSpaceOnUse" x1="767.7885" y1="437.1194" x2="831.0707" y2="457.9914">
					<stop  offset="0" style="stop-color:#000000"/>
					<stop  offset="1" style="stop-color:#FF0000"/>
				</linearGradient>
				<path class="st2" d="M768.2,470.45c8.92-24.36,27.28-40.29,56.56-47.73h0C789.11,426.57,774.15,453.45,768.2,470.45z"/>
			</g>
		</g>
	</g>
</g>
<g id="Layer_3_copy">
	<path class="st3" d="M129.14,930.74c0,0,19.75,136.74,69,166.03c100.37,100.37,157.77,83.75,493,83.75
		c255.55,0,411.47,32.54,517.51-127.26c16.93-28.51,31.59-84.38,34.07-115.22c0-157.09,0.59-362.46,0.59-579.15
		c-4.56-125.25-11.96-127.06-34.75-167.92C1135.15,59.31,976.63,51.26,976.63,51.26c152.71,0,276.51,123.8,276.51,276.51v602.97
		c0,152.71-123.8,276.51-276.51,276.51H405.65C252.94,1207.26,129.14,1083.46,129.14,930.74z"/>
</g>
</svg>
