<?xml version="1.0" encoding="utf-8"?>
<svg version="1.1" xmlns="http://www.w3.org/2000/svg" xmlns:xlink="http://www.w3.org/1999/xlink" x="0px" y="0px"
	 viewBox="0 0 1370 1240" style="enable-background:new 0 0 1370 1240;" xml:space="preserve">
<style type="text/css">
	.st0{fill:#FFFFFF;}
</style>
<g id="Layer_2_copy">
	<g>
		<g>
			<path class="st0" d="M1006.11,35H387.89C232.76,35,107,160.76,107,315.89v608.21C107,1079.24,232.76,1205,387.89,1205h618.21
				c155.13,0,280.89-125.76,280.89-280.89V315.89C1287,160.76,1161.24,35,1006.11,35z M996.58,1135H397.42
				c-138.9-24.54-193.31-89.28-217.42-225.42V330.42C203.02,199.24,243.89,139.72,395.42,113h599.17
				c129.75,11.35,206.18,87.92,217.42,217.42l6,579.17C1211.71,1039.35,1119.2,1126.9,996.58,1135z"/>
		</g>
	</g>
</g>
<g id="Layer_3">
	<path id="_x3C_Path_x3E__1_" class="st0" d="M387.02,908.27l1.24-401.34c0.06-18.77,15.31-33.94,34.08-33.91l74.95,0.14
		c18.77,0.04,33.97,15.28,33.95,34.05l-0.47,401.39c-0.02,18.8-15.3,34.02-34.1,33.97l-75.72-0.19
		C402.15,942.34,386.96,927.06,387.02,908.27z"/>
	<g>
		<g>
			<path class="st0" d="M821.1,466.16c-24.22,1.98-56.95,24.93-73.07,37.35c-1.82-17.04-16.22-30.32-33.75-30.35l-74.95-0.14
				c-18.77-0.04-34.02,15.14-34.08,33.91l-1.24,401.34c-0.06,18.79,15.13,34.07,33.92,34.12l75.72,0.19
				c18.8,0.05,34.08-15.17,34.1-33.97l0.33-282.1c21.83-32.99,77.32-72.14,140.28-6.5c0,279.11,1.82,286.27,1.82,286.27
				c-0.06,18.79,8.42,36.07,27.87,36.12l78.39,0.19c19.46,0.05,35.27-15.17,35.3-33.97c0,0,0.48,0.72,0.48-315.39
				C1030.4,583.38,1014.05,454.37,821.1,466.16z"/>
		</g>
	</g>
	<ellipse class="st0" cx="459.04" cy="361.73" rx="82" ry="81"/>
</g>
</svg>
