<?xml version="1.0" encoding="UTF-8"?>
<svg xmlns="http://www.w3.org/2000/svg" version="1.1" viewBox="0 0 1370 1240">
  <defs>
    <style>
      .cls-1 {
        fill: #e53935;
        stroke-width: 0px;
      }
    </style>
  </defs>
  <g id="Layer_2_copy" data-name="Layer 2 copy">
    <path class="cls-1" d="M1006.11,35H387.89c-155.13,0-280.89,125.76-280.89,280.89v608.21c0,155.13,125.76,280.89,280.89,280.89h618.21c155.13,0,280.89-125.76,280.89-280.89V315.89c0-155.13-125.76-280.89-280.89-280.89ZM996.58,1135H397.42c-138.9-24.54-193.31-89.28-217.42-225.42V330.42c23.02-131.17,63.89-190.69,215.42-217.42h599.17c129.75,11.35,206.18,87.92,217.42,217.42l6,579.17c-6.29,129.76-98.8,217.32-221.42,225.42Z"/>
  </g>
  <g id="Layer_3" data-name="Layer 3">
    <path id="_Path_" data-name="&amp;lt;Path&amp;gt;" class="cls-1" d="M387.02,908.27l1.24-401.34c.06-18.77,15.31-33.94,34.08-33.91l74.95.14c18.77.04,33.97,15.28,33.95,34.05l-.47,401.39c-.02,18.8-15.3,34.02-34.1,33.97l-75.72-.19c-18.79-.05-33.98-15.33-33.92-34.12Z"/>
    <path class="cls-1" d="M821.1,466.16c-24.22,1.98-56.95,24.93-73.07,37.35-1.82-17.04-16.22-30.32-33.75-30.35l-74.95-.14c-18.77-.04-34.02,15.14-34.08,33.91l-1.24,401.34c-.06,18.79,15.13,34.07,33.92,34.12l75.72.19c18.8.05,34.08-15.17,34.1-33.97l.33-282.1c21.83-32.99,77.32-72.14,140.28-6.5,0,279.11,1.82,286.27,1.82,286.27-.06,18.79,8.42,36.07,27.87,36.12l78.39.19c19.46.05,35.27-15.17,35.3-33.97,0,0,.48.72.48-315.39-1.83-9.83-18.18-138.84-211.13-127.05Z"/>
    <ellipse class="cls-1" cx="459.04" cy="361.73" rx="82" ry="81"/>
  </g>
</svg>