<?xml version="1.0" encoding="UTF-8"?>
<svg xmlns="http://www.w3.org/2000/svg" version="1.1" viewBox="0 0 226 239">
  <defs>
    <style>
      .cls-1 {
        fill: none;
        stroke: #d33d3e;
        stroke-miterlimit: 10;
        stroke-width: 15px;
      }

      .cls-2 {
        fill: #d33d3e;
        stroke-width: 0px;
      }
    </style>
  </defs>
  <g id="Layer_3" data-name="Layer 3">
    <g id="Layer_3_copy" data-name="Layer 3 copy">
      <g id="Layer_2" data-name="Layer 2">
        <path class="cls-1" d="M26.21,110.63c0-49.71,40.29-90,90-90s90,40.29,90,90-40.29,90-90,90c-13.88,0-27.03-3.14-38.77-8.75-.53-.25-4.47,1.28-4.47,1.28l-49.42,18.56,14.36-45.17s2.16-5.37,1.67-6.09c-9.7-14.36-13.37-31.18-13.37-49.82Z"/>
      </g>
    </g>
  </g>
  <g id="Layer_4" data-name="Layer 4">
    <path class="cls-2" d="M91.46,54.27l17.84,31.96s.5,2.44.56,3.09c.02.2-.1,2.44-.41,3.16-1.74,3.93-10.16,8.76-14.42,9.37-1.3.19-3.84-1.16-4.91-1.93-1.13-.82-3.05-3.01-3.57-4.31-.29-.73-.45-3.12-.45-3.12,0,0-2.15,1.17-2.54,1.85-.52.88-.36,3.09-.13,4.09.36,1.54,2.23,4.22,3.21,5.47,5.43,6.95,18.94,18.56,25.97,23.89,3.53,2.68,11.31,7.02,15.22,9.12,1.55.83,4.85,2.32,6.6,2.45.89.07,3.21-1.57,3.21-1.57l-6.88-5.93s-.54-.63-.87-1.41c-.38-.92-.56-2.05-.61-2.63-.09-1.08.61-3.22,1.14-4.17.97-1.73,5.44-5.78,5.44-5.78,0,0,3.16-3.69,4.5-4.57.89-.58,3.04-1.15,4.1-1.08.53.04,1.7.4,2.58.81,1.22.56,2.13,1.21,2.13,1.21l28.58,21.76s.52.55.84,1.25c.39.86.6,1.95.68,2.5.15,1.01-.25,3.07-.63,4.02-.51,1.28-2.34,3.4-3.22,4.47-2.64,3.21-8.58,9.16-12.06,11.43-4.04,2.64-13.49,5.67-18.28,6.24s-13.77-1.32-18.16-2.66c-5.69-1.75-16.13-7.8-21.06-11.14-7.81-5.28-21.6-18.33-28.08-25.18-3.89-4.12-10.65-13.3-13.56-18.16-2.34-3.92-5.83-12.48-6.78-16.95-.58-2.72-.32-8.37,0-11.14s1.82-7.76,2.9-10.17c.87-1.94,3.43-5.39,4.79-7.02s4.57-4.52,6.2-5.9,5.32-4,7.32-4.93c1.57-.73,5.06-1.45,6.8-1.42.78.01,2.29.55,2.99.9.83.41,2.99,2.15,2.99,2.15Z"/>
  </g>
</svg>