<?xml version="1.0" encoding="utf-8"?>
<svg xmlns="http://www.w3.org/2000/svg" viewBox="0 0 226 239" xml:space="preserve">
<style type="text/css">
  .whatsapp-stroke { fill:none; stroke:#FFFFFF; stroke-width:15; stroke-linecap:round; stroke-linejoin:round; }
  .whatsapp-fill { fill:#FFFFFF; }
</style>
<path class="whatsapp-stroke" d="M26.21,110.63c0-49.71,40.29-90,90-90s90,40.29,90,90-40.29,90-90,90c-13.88,0-27.03-3.14-38.77-8.75-0.53-0.25-4.47,1.28-4.47,1.28l-49.42,18.56l14.36-45.17c0,0,2.16-5.37,1.67-6.09C29.87,146.09,26.21,129.27,26.21,110.63z"/>
<path class="whatsapp-fill" d="M91.46,54.27l17.84,31.96c0,0,0.5,2.44,0.56,3.09c0.02,0.2-0.1,2.44-0.41,3.16
	c-1.74,3.93-10.16,8.76-14.42,9.37c-1.3,0.19-3.84-1.16-4.91-1.93c-1.13-0.82-3.05-3.01-3.57-4.31c-0.29-0.73-0.45-3.12-0.45-3.12
	s-2.15,1.17-2.54,1.85c-0.52,0.88-0.36,3.09-0.13,4.09c0.36,1.54,2.23,4.22,3.21,5.47c5.43,6.95,18.94,18.56,25.97,23.89
	c3.53,2.68,11.31,7.02,15.22,9.12c1.55,0.83,4.85,2.32,6.6,2.45c0.89,0.07,3.21-1.57,3.21-1.57l-6.88-5.93c0,0-0.54-0.63-0.87-1.41
	c-0.38-0.92-0.56-2.05-0.61-2.63c-0.09-1.08,0.61-3.22,1.14-4.17c0.97-1.73,5.44-5.78,5.44-5.78s3.16-3.69,4.5-4.57
	c0.89-0.58,3.04-1.15,4.1-1.08c0.53,0.04,1.7,0.4,2.58,0.81c1.22,0.56,2.13,1.21,2.13,1.21l28.58,21.76c0,0,0.52,0.55,0.84,1.25
	c0.39,0.86,0.6,1.95,0.68,2.5c0.15,1.01-0.25,3.07-0.63,4.02c-0.51,1.28-2.34,3.4-3.22,4.47c-2.64,3.21-8.58,9.16-12.06,11.43
	c-4.04,2.64-13.49,5.67-18.28,6.24c-4.56,0.53-13.77-1.32-18.16-2.66c-5.69-1.75-16.13-7.8-21.06-11.14
	c-7.81-5.28-21.6-18.33-28.08-25.18c-3.89-4.12-10.65-13.3-13.56-18.16c-2.34-3.92-5.83-12.48-6.78-16.95
	c-0.58-2.72-0.32-8.37,0-11.14c0.3-2.63,1.82-7.76,2.9-10.17c0.87-1.94,3.43-5.39,4.79-7.02c1.37-1.64,4.57-4.52,6.2-5.9
	c1.68-1.43,5.32-4,7.32-4.93c1.57-0.73,5.06-1.45,6.8-1.42c0.78,0.01,2.29,0.55,2.99,0.9C89.29,52.52,91.46,54.27,91.46,54.27z"/>
</svg>
